<svg xmlns="http://www.w3.org/2000/svg" viewBox="0 0 100 100">
  <!-- Background circle -->
  <circle cx="50" cy="50" r="48" fill="#2563EB" />
  
  <!-- Car silhouette -->
  <path d="M75,55 C75,52.5 72.5,50 70,50 L65,40 C65,40 60,35 50,35 C40,35 35,40 35,40 L30,50 C27.5,50 25,52.5 25,55 L25,65 C25,65 25,70 30,70 L32.5,70 C32.5,70 35,75 40,75 C45,75 47.5,70 47.5,70 L52.5,70 C52.5,70 55,75 60,75 C65,75 67.5,70 67.5,70 L70,70 C75,70 75,65 75,65 Z" fill="white" />
  
  <!-- Windows -->
  <path d="M37.5,42.5 L42.5,42.5 L45,47.5 L35,47.5 Z" fill="#2563EB" />
  <path d="M57.5,42.5 L62.5,42.5 L65,47.5 L55,47.5 Z" fill="#2563EB" />
  
  <!-- Wheels -->
  <circle cx="40" cy="70" r="7.5" fill="#2563EB" stroke="white" stroke-width="2" />
  <circle cx="60" cy="70" r="7.5" fill="#2563EB" stroke="white" stroke-width="2" />
  
  <!-- Water droplets -->
  <path d="M20,30 C20,30 25,20 30,30 C30,35 20,35 20,30 Z" fill="white" />
  <path d="M70,25 C70,25 75,15 80,25 C80,30 70,30 70,25 Z" fill="white" />
</svg>
